# This file uses centimeters as units for non-parametric coordinates.

mtllib test_thing.mtl
g default
v -3.840342 -2.040086 3.688144
v 3.840342 -2.040086 3.688144
v -3.840342 2.040086 3.688144
v 3.840342 2.040086 3.688144
v -3.840342 2.040086 -3.688144
v 3.840342 2.040086 -3.688144
v -3.840342 -2.040086 -3.688144
v 3.840342 -2.040086 -3.688144
v -1.437568 5.882274 1.455620
v 1.437568 5.882274 1.455620
v 1.437568 5.882274 -1.455620
v -1.437568 5.882274 -1.455620
v -3.840342 2.768070 4.941009
v 3.840342 2.768070 4.941009
v 1.437568 6.610257 2.708484
v -1.437568 6.610257 2.708484
v 5.068897 2.808383 3.688144
v 5.068897 2.808383 -3.688144
v 2.666123 6.650571 -1.455620
v 2.666123 6.650571 1.455620
v -3.840342 2.768070 -4.941009
v 3.840342 2.768070 -4.941009
v -1.437568 6.610257 -2.708484
v 1.437568 6.610257 -2.708484
v -5.068897 2.808383 3.688144
v -5.068897 2.808383 -3.688144
v -2.666123 6.650571 1.455620
v -2.666123 6.650571 -1.455620
vt 0.375000 0.000000
vt 0.625000 0.000000
vt 0.375000 0.250000
vt 0.625000 0.250000
vt 0.375000 0.500000
vt 0.625000 0.500000
vt 0.375000 0.750000
vt 0.625000 0.750000
vt 0.375000 1.000000
vt 0.625000 1.000000
vt 0.875000 0.000000
vt 0.875000 0.250000
vt 0.125000 0.000000
vt 0.125000 0.250000
vt 0.375000 0.250000
vt 0.625000 0.250000
vt 0.625000 0.500000
vt 0.375000 0.500000
vt 0.375000 0.250000
vt 0.625000 0.250000
vt 0.625000 0.250000
vt 0.375000 0.250000
vt 0.625000 0.250000
vt 0.625000 0.500000
vt 0.625000 0.500000
vt 0.625000 0.250000
vt 0.625000 0.500000
vt 0.375000 0.500000
vt 0.375000 0.500000
vt 0.625000 0.500000
vt 0.375000 0.500000
vt 0.375000 0.250000
vt 0.375000 0.250000
vt 0.375000 0.500000
vn 0.000000 0.000000 1.000000
vn 0.000000 0.000000 1.000000
vn 0.000000 0.000000 1.000000
vn 0.000000 0.000000 1.000000
vn 0.000000 1.000000 0.000000
vn 0.000000 1.000000 0.000000
vn 0.000000 1.000000 0.000000
vn 0.000000 1.000000 0.000000
vn 0.000000 0.000000 -1.000000
vn 0.000000 0.000000 -1.000000
vn 0.000000 0.000000 -1.000000
vn 0.000000 0.000000 -1.000000
vn 0.000000 -1.000000 0.000000
vn 0.000000 -1.000000 0.000000
vn 0.000000 -1.000000 0.000000
vn 0.000000 -1.000000 0.000000
vn 1.000000 0.000000 0.000000
vn 1.000000 0.000000 0.000000
vn 1.000000 0.000000 0.000000
vn 1.000000 0.000000 0.000000
vn -1.000000 0.000000 0.000000
vn -1.000000 0.000000 0.000000
vn -1.000000 0.000000 0.000000
vn -1.000000 0.000000 0.000000
vn 0.000000 0.502401 0.864635
vn 0.000000 0.502401 0.864635
vn 0.000000 0.502401 0.864635
vn 0.000000 0.502401 0.864635
vn 0.847859 0.530222 0.000000
vn 0.847859 0.530222 0.000000
vn 0.847859 0.530222 0.000000
vn 0.847859 0.530222 0.000000
vn 0.000000 0.502401 -0.864635
vn 0.000000 0.502401 -0.864635
vn 0.000000 0.502401 -0.864635
vn 0.000000 0.502401 -0.864635
vn -0.847859 0.530222 0.000000
vn -0.847859 0.530222 0.000000
vn -0.847859 0.530222 0.000000
vn -0.847859 0.530222 0.000000
vn 0.000000 -0.864635 0.502401
vn 0.000000 -0.864635 0.502401
vn 0.000000 -0.864635 0.502401
vn 0.000000 -0.864635 0.502400
vn 0.879643 0.411250 -0.238959
vn 0.879643 0.411250 -0.238959
vn 0.879643 0.411250 -0.238959
vn 0.879643 0.411250 -0.238959
vn 0.000000 0.864635 -0.502401
vn 0.000000 0.864635 -0.502400
vn 0.000000 0.864635 -0.502401
vn 0.000000 0.864635 -0.502400
vn -0.879643 0.411250 -0.238959
vn -0.879643 0.411250 -0.238959
vn -0.879643 0.411250 -0.238959
vn -0.879643 0.411251 -0.238959
vn 0.530222 -0.847859 0.000000
vn 0.530222 -0.847859 0.000000
vn 0.530222 -0.847859 0.000000
vn 0.530222 -0.847859 0.000000
vn -0.234323 0.374697 -0.897048
vn -0.234323 0.374697 -0.897048
vn -0.234323 0.374697 -0.897048
vn -0.234323 0.374697 -0.897048
vn -0.530222 0.847859 0.000000
vn -0.530222 0.847859 0.000000
vn -0.530222 0.847859 0.000000
vn -0.530222 0.847859 0.000000
vn -0.234323 0.374697 0.897048
vn -0.234323 0.374697 0.897048
vn -0.234323 0.374697 0.897048
vn -0.234323 0.374697 0.897048
vn 0.000000 -0.864635 -0.502401
vn 0.000000 -0.864635 -0.502401
vn 0.000000 -0.864635 -0.502401
vn 0.000000 -0.864635 -0.502400
vn -0.879643 0.411250 0.238959
vn -0.879643 0.411250 0.238959
vn -0.879643 0.411250 0.238959
vn -0.879643 0.411250 0.238959
vn 0.000000 0.864635 0.502401
vn 0.000000 0.864635 0.502400
vn 0.000000 0.864635 0.502401
vn 0.000000 0.864635 0.502400
vn 0.879643 0.411250 0.238959
vn 0.879643 0.411250 0.238959
vn 0.879643 0.411250 0.238959
vn 0.879643 0.411251 0.238959
vn -0.530222 -0.847859 0.000000
vn -0.530222 -0.847859 0.000000
vn -0.530222 -0.847859 0.000000
vn -0.530222 -0.847859 0.000000
vn 0.234323 0.374697 0.897048
vn 0.234323 0.374697 0.897048
vn 0.234323 0.374697 0.897048
vn 0.234323 0.374697 0.897048
vn 0.530222 0.847859 0.000000
vn 0.530222 0.847859 0.000000
vn 0.530222 0.847859 0.000000
vn 0.530222 0.847859 0.000000
vn 0.234323 0.374697 -0.897048
vn 0.234323 0.374697 -0.897048
vn 0.234323 0.374697 -0.897048
vn 0.234323 0.374697 -0.897048
s 1
g pCube1
usemtl initialShadingGroup
f 1/1/1 2/2/2 3/3/3
f 3/3/3 2/2/2 4/4/4
s 2
f 9/15/5 10/16/6 12/18/7
f 12/18/7 10/16/6 11/17/8
s 3
f 5/5/9 6/6/10 7/7/11
f 7/7/11 6/6/10 8/8/12
s 4
f 7/7/13 8/8/14 1/9/15
f 1/9/15 8/8/14 2/10/16
s 5
f 2/2/17 8/11/18 4/4/19
f 4/4/19 8/11/18 6/12/20
s 6
f 7/13/21 1/1/22 5/14/23
f 5/14/23 1/1/22 3/3/24
s 7
f 13/19/25 14/20/26 16/22/27
f 16/22/27 14/20/26 15/21/28
s 8
f 17/23/29 18/24/30 20/26/31
f 20/26/31 18/24/30 19/25/32
s 9
f 22/27/33 21/28/34 24/30/35
f 24/30/35 21/28/34 23/29/36
s 10
f 26/31/37 25/32/38 28/34/39
f 28/34/39 25/32/38 27/33/40
s 11
f 3/3/41 4/4/42 13/19/43
f 13/19/43 4/4/42 14/20/44
s 12
f 4/4/45 10/16/46 14/20/47
f 14/20/47 10/16/46 15/21/48
s 13
f 10/16/49 9/15/50 15/21/51
f 15/21/51 9/15/50 16/22/52
s 14
f 9/15/53 3/3/54 16/22/55
f 16/22/55 3/3/54 13/19/56
s 15
f 4/4/57 6/6/58 17/23/59
f 17/23/59 6/6/58 18/24/60
s 16
f 6/6/61 11/17/62 18/24/63
f 18/24/63 11/17/62 19/25/64
s 17
f 11/17/65 10/16/66 19/25/67
f 19/25/67 10/16/66 20/26/68
s 18
f 10/16/69 4/4/70 20/26/71
f 20/26/71 4/4/70 17/23/72
s 19
f 6/6/73 5/5/74 22/27/75
f 22/27/75 5/5/74 21/28/76
s 20
f 5/5/77 12/18/78 21/28/79
f 21/28/79 12/18/78 23/29/80
s 21
f 12/18/81 11/17/82 23/29/83
f 23/29/83 11/17/82 24/30/84
s 22
f 11/17/85 6/6/86 24/30/87
f 24/30/87 6/6/86 22/27/88
s 23
f 5/5/89 3/3/90 26/31/91
f 26/31/91 3/3/90 25/32/92
s 24
f 3/3/93 9/15/94 25/32/95
f 25/32/95 9/15/94 27/33/96
s 25
f 9/15/97 12/18/98 27/33/99
f 27/33/99 12/18/98 28/34/100
s 26
f 12/18/101 5/5/102 28/34/103
f 28/34/103 5/5/102 26/31/104
